<?xml version="1.0" encoding="UTF-8"?>
<svg id="Layer_2" data-name="Layer 2" xmlns="http://www.w3.org/2000/svg" viewBox="0 0 195.37 28.01">
  <defs>
    <style>
      .cls-1 {
        fill: #ef9b33;
      }

      .cls-2 {
        fill: #fefdf2;
      }
    </style>
  </defs>
  <g id="Lag_2" data-name="Lag 2">
    <g>
      <g>
        <path class="cls-1" d="M28.52,11.22c0,1.13-.47,2.27-1.49,3.1-.81.66-1.25,1.63-1.25,2.62,0,.49.11.98.32,1.44.27.57.39,1.16.39,1.72,0,2.41-2.25,4.49-4.88,3.91-.24-.05-.49-.08-.73-.08-.21,0-.42.02-.62.06-.24-.46-.36-.98-.37-1.53-.01-1.86-1.29-3.46-3.1-3.88-1.28-.3-2.21-1.24-2.51-2.52-.29-1.28.14-2.54,1.16-3.36,1.44-1.17,1.9-3.16,1.1-4.84-.56-1.19-.41-2.51.41-3.53.82-1.03,2.07-1.47,3.35-1.19.81.18,1.62.1,2.35-.19.1.34.15.71.16,1.1,0,.78.28,1.5.74,2.08.46.57,1.11,1,1.86,1.18,1.97.47,3.09,2.18,3.09,3.92Z"/>
        <path class="cls-2" d="M22.12,1.72c-.47.17-.99.21-1.51.09-1.75-.39-3.53.25-4.65,1.65-1.12,1.4-1.34,3.28-.57,4.9.54,1.14.23,2.49-.75,3.28-1.39,1.13-2.01,2.91-1.61,4.66.4,1.75,1.73,3.09,3.47,3.5,1.23.29,2.09,1.37,2.1,2.63,0,.71.17,1.39.46,2-.5.32-.92.78-1.2,1.35-.73,1.5-2.17,2.24-3.6,2.24s-2.87-.75-3.6-2.24c-.57-1.17-1.76-1.89-3.03-1.89-.24,0-.48.03-.73.08-.3.07-.6.1-.89.1-2.82,0-4.89-3-3.6-5.73.22-.46.32-.95.32-1.44,0-.99-.44-1.96-1.25-2.62-1.02-.82-1.49-1.97-1.49-3.1,0-1.75,1.12-3.46,3.09-3.92.76-.18,1.4-.6,1.86-1.18.46-.57.73-1.3.74-2.08C5.71,1.62,7.65,0,9.72,0,10.56,0,11.42.27,12.18.86c.61.48,1.35.72,2.08.72s1.47-.24,2.08-.72c1.93-1.52,4.53-.91,5.77.85Z"/>
      </g>
      <path class="cls-2" d="M41.06,5.61l4.79,14.68h.02l4.79-14.68h2.23l-5.87,16.8h-2.33l-5.87-16.8h2.23Z"/>
      <path class="cls-2" d="M63.92,5.61v16.8h-2.11V5.61h2.11Z"/>
      <path class="cls-2" d="M86.45,18.01c0,2.44-1.81,4.72-6.06,4.72-3.97,0-7.05-2.11-7.28-5.97h2.11c.24,2.3,1.64,4.09,5.17,4.09,2.91,0,3.95-1.34,3.95-2.84,0-2.3-1.24-2.72-5-3.59-2.51-.59-5.52-1.46-5.52-4.72,0-2.65,2.04-4.42,5.76-4.42s6.06,1.83,6.34,5.31h-2.11c-.31-2.26-1.57-3.43-4.23-3.43-2.37,0-3.64.92-3.64,2.3,0,2.23,1.81,2.54,4.27,3.15,3.78.94,6.25,1.57,6.25,5.4Z"/>
      <path class="cls-2" d="M98.08,5.61v16.8h-2.11V5.61h2.11Z"/>
      <path class="cls-2" d="M117.98,13.31v.05c1.76.31,3.27,1.64,3.27,4.16,0,3.1-2.21,4.89-5.69,4.89h-7.23V5.61h6.77c3.43,0,5.5,1.62,5.5,4.23,0,2.07-1.22,3.01-2.61,3.48ZM115.42,12.63c2.4,0,3.05-1.03,3.05-2.56s-.89-2.58-2.82-2.58h-5.21v5.14h4.98ZM110.44,20.52h5.33c2.7,0,3.36-1.43,3.36-3.01,0-1.81-1.13-3.01-2.89-3.01h-5.8v6.01Z"/>
      <path class="cls-2" d="M136.66,22.73c-4.49,0-6.44-2.49-6.44-5.92V5.61h2.11v11.2c0,2.72,1.41,4.04,4.32,4.04s4.32-1.32,4.32-4.04V5.61h2.11v11.2c0,3.43-1.95,5.92-6.44,5.92Z"/>
      <path class="cls-2" d="M155.17,5.61v16.8h-2.11V5.61h2.11Z"/>
      <path class="cls-2" d="M167.53,5.61v14.92h8.81v1.88h-10.92V5.61h2.11Z"/>
      <path class="cls-2" d="M187.66,7.49h-5.59v-1.88h13.3v1.88h-5.59v14.92h-2.11V7.49Z"/>
    </g>
  </g>
</svg>